<svg xmlns="http://www.w3.org/2000/svg" width="44.418" height="44.512" viewBox="0 0 44.418 44.512">
    <defs>
        <linearGradient id="0lk7i4ynda" x1=".5" x2=".5" y2="1" gradientUnits="objectBoundingBox">
            <stop offset="0" stop-color="#fff"/>
            <stop offset="1" stop-color="#d9f88b"/>
        </linearGradient>
        <clipPath id="g867sv3s7b">
            <path data-name="Path 239406" d="M-17786.463 21174.941a14.53 14.53 0 0 1-3.4 1.1s-2.193-.3-2.613.4.906 7.32 3.588 8.77 2.154 1.672 5.627 1.705 5.268-2.15 7.209-4.65 1.379-6.225 1.379-6.225h-2.7s-8.254-1.668-9.09-1.1z" transform="translate(17792.557 -21174.824)" style="stroke-width:.2px;stroke:#707070;fill:none"/>
        </clipPath>
    </defs>
    <g data-name="Group 88638">
        <path data-name="Path 183895" d="M248.736 191.3a50.869 50.869 0 0 1-13.183-13.183 8.3 8.3 0 0 1-2.362-5.729 8.076 8.076 0 0 1 2.362-5.729 69.444 69.444 0 0 1 13.183-13.182 8.3 8.3 0 0 1 5.729-2.363 8.072 8.072 0 0 1 5.729 2.363 79.3 79.3 0 0 1 13.183 13.182 8.3 8.3 0 0 1 2.363 5.729 8.077 8.077 0 0 1-2.363 5.729 78.786 78.786 0 0 1-13.184 13.183 8.347 8.347 0 0 1-3.485 2.049 7.886 7.886 0 0 1-2.244.313 8.371 8.371 0 0 1-2.788-.546 8.951 8.951 0 0 1-2.94-1.816z" transform="translate(-231.321 -150.331)" style="fill:url(#0lk7i4ynda)"/>
        <g data-name="Group 199649" transform="translate(.527 .594)">
            <path data-name="Path 238452" d="M0 0h25.951s3.832 9.577-5.132 12.411-20.819 0-20.819 0z" transform="translate(4.079 30.248)" style="fill:#fff"/>
            <path data-name="Path 229432" d="m797.707 890.069 3.577 3.16-8.474.695a21.245 21.245 0 0 1-2.847-.73 7.194 7.194 0 0 1 7.744-3.125z" transform="translate(-780.244 -869.101)" style="fill:#fff;stroke:#707070"/>
            <path data-name="Path 229407" d="M789.612 883.262c-.112.04-.223.085-.344.131a4.2 4.2 0 0 0 1.69-1.193 4.762 4.762 0 0 0 1.035-3.46 10.915 10.915 0 0 1-3.492-5.014 10.182 10.182 0 0 1-.472-3.886 4.928 4.928 0 0 1 .583-2.471c1.2-1.776 3.611-.439 6.4-2.392 1.913-1.35 2.208-2.609 3.336-2.545 2.051.118 3.237 4.384 3.342 4.791a11.338 11.338 0 0 1-.216 6.252 11.909 11.909 0 0 1-3.594 5.375 3.515 3.515 0 0 0 .275 2.588 3.661 3.661 0 0 0 2.018 1.554" transform="translate(-779.634 -860.531)" style="stroke-miterlimit:10;stroke:#2d2d2d;fill:#fff"/>
            <ellipse data-name="Ellipse 52056" cx="7.067" cy="9.486" rx="7.067" ry="9.486" transform="translate(8.287 2.39)" style="stroke-miterlimit:10;stroke:#2d2d2d;fill:#fff"/>
            <path data-name="Path 229413" d="M807.721 876.333c1.832-.862 2.525-2.481 2.087-3.374-.353-.719-1.4-.884-1.645-.916a12.394 12.394 0 0 1-.442 4.29z" transform="translate(-785.79 -861.143)" style="stroke-linecap:round;stroke-miterlimit:10;stroke:#2d2d2d;fill:#fff"/>
            <path data-name="Path 229414" d="M787.215 875.813c-1.711-.867-2.307-2.5-1.824-3.406a2.245 2.245 0 0 1 1.675-.912 12.285 12.285 0 0 0-.123 1.812 12.419 12.419 0 0 0 .272 2.506z" transform="translate(-778.767 -860.972)" style="stroke-linecap:round;stroke-miterlimit:10;stroke:#2d2d2d;fill:#fff"/>
            <path data-name="Path 229416" d="M782.1 903.768c0 2.52 2.148 2.658 3.261 2.52 2.87-.357 5.478-1.352 6.586-1.515 1.434-.21 2.322 3.382 2.385 4.022s-.739.979-.739.979c-19.053 7.245-17.74-2.443-17.74-2.443.321-11.246 4.045-12.793 4.045-12.793a13.243 13.243 0 0 1 5.58-2.259 3.65 3.65 0 0 1 2.623.376 5.7 5.7 0 0 0 5.753.1 3.57 3.57 0 0 1 2.516-.477l.244.035a13.675 13.675 0 0 1 7.29 3.428c.862.845.914 2.16 2.234 4.826" transform="translate(-775.833 -869.82)" style="stroke-linecap:round;stroke-miterlimit:10;stroke:#2d2d2d;fill:#fff"/>
            <path data-name="Path 229434" d="M811.839 910.392a4.379 4.379 0 0 0-.619 3.154c.179 1.223 2.14 2.483 3.376 2.468a3.916 3.916 0 0 0 2.161-1.184c1.274-1.556.409-9.743.409-9.743" transform="translate(-786.861 -873.848)" style="stroke-linecap:round;stroke-miterlimit:10;stroke:#2d2d2d;fill:#fff"/>
            <path data-name="Path 229442" d="M812.646 906.458a4.02 4.02 0 0 1-.366 2.157" transform="translate(-787.214 -874.278)" style="stroke-linejoin:bevel;stroke-linecap:round;stroke:#2d2d2d;fill:none"/>
            <path data-name="Path 229443" d="M811.556 912.259a11 11 0 0 0 1.069-3.283s-.15-1.068 1.369-.516 2.752.767 3.3.446.949.025.746.387a19.017 19.017 0 0 0-.485 3.587" transform="translate(-786.988 -874.853)" style="stroke-linejoin:bevel;stroke-linecap:round;stroke:#2d2d2d;fill:#fff"/>
            <g data-name="Group 124185">
                <path data-name="Path 229445" d="M808.017 905.953a1.873 1.873 0 0 1 1.177 1.972c-.008 2.664-1.485 2.491-1.485 2.491-.276.77-2.007 1.088-2.007 1.088-.614.724-1.124.478-1.124.478a4 4 0 0 1-1.476.374 4.9 4.9 0 0 0-2.047 1.026 1.331 1.331 0 0 1-.5.345c-2.067-.153-2.444-1.917-2.483-2.963a.808.808 0 0 1 .613-.814 5.794 5.794 0 0 0 2.842-2.257s2.089-2.882 6.49-1.74z" transform="translate(-782.776 -874.868)" style="stroke-width:.5px;stroke:#fff;fill:#0097ff;stroke-linecap:round;stroke-miterlimit:10"/>
                <path data-name="Path 229446" d="M805.045 909.772a9.539 9.539 0 0 0 1 .943c.387.291-.436.919-.456 1.12s-.175.585.266.866 1.773.145 2.047-.415" transform="translate(-784.955 -875.681)" style="stroke-width:.5px;stroke:#fff;fill:#0097ff;stroke-linecap:round;stroke-miterlimit:10"/>
                <path data-name="Path 229447" d="M809.169 912.3a3.9 3.9 0 0 0 1.067-1.831 1.958 1.958 0 0 0-.743-2.243" transform="translate(-786.797 -875.42)" style="stroke-width:.4px;stroke:#fff;fill:#0097ff;stroke-linecap:round;stroke-miterlimit:10"/>
                <path data-name="Path 239410" d="M8.859 5.106a2.836 2.836 0 0 0 .194-2.386" transform="translate(15.594 30.911)" style="stroke-linejoin:round;stroke-width:.4px;stroke:#fff;stroke-linecap:round;fill:none"/>
            </g>
            <path data-name="Path 229449" d="M794.528 912.45s2.084-.635 2.837-.817.742-.063.742-.063c2.492 1.117 1.992 4.638 1.992 4.638a9.837 9.837 0 0 1-1.2.691 24.134 24.134 0 0 1-2.512.818" transform="translate(-781.671 -876.694)" style="stroke-linejoin:round;stroke-linecap:round;stroke:#2d2d2d;fill:#fff"/>
            <path data-name="Path 229451" d="M787.587 865.608s.981-2.724 7.006-2.577 6.677 2.246 6.677 2.246.268 1.492.985.331c0 0 1.457-1.724.685-3.208 0 0-.081-2.435-1.792-3.147 0 0-1.058-2.6-3.552-2.34 0 0-3.088-1.606-5.344-.019 0 0-3.384.162-4.038 2.181a3.372 3.372 0 0 0-1.364 3.384 2.948 2.948 0 0 0 .737 3.149z" transform="translate(-779.219 -856.193)" style="stroke-linecap:round;stroke-miterlimit:10;stroke:#2d2d2d;fill:#fff"/>
            <path data-name="Path 117844" d="M799.806 860.913h-.6a.19.19 0 0 1-.192-.188l-.006-.574a.611.611 0 0 0-1.221-.013l.007.6a.192.192 0 0 1-.193.189l-.64.006a.61.61 0 0 0-.621.6.607.607 0 0 0 .633.58l.641-.011a.192.192 0 0 1 .2.182l.007.578a.587.587 0 0 0 .474.57.612.612 0 0 0 .731-.466.638.638 0 0 0 .014-.108l-.006-.589a.19.19 0 0 1 .191-.19l.6-.011a.59.59 0 0 0 .59-.583.588.588 0 0 0-.6-.575z" transform="translate(-782.671 -857.667)" style="isolation:isolate;fill:#0097ff"/>
            <g data-name="Mask Group 2139" transform="translate(6.316 11.133)" style="clip-path:url(#g867sv3s7b)">
                <path data-name="Path 184964" d="M801.977 873.982c.01 1.536-.307 7.28-5.445 9a5.267 5.267 0 0 1-3.456-.028c-2.149-.772-5.476-3.012-5.2-9.41 0-.063-.067-.091 0-.086v.086a1.057 1.057 0 0 0 0 .578c.747.948 3.455-.363 6.662-.363 3.331 0 6.489 1.2 7.4.505" transform="translate(-785.844 -872.75)" style="stroke:#fff;fill:#0097ff;stroke-linecap:round;stroke-miterlimit:10"/>
            </g>
            <g data-name="Group 189131">
                <path data-name="Path 239407" d="M.8 20.058c.133 0 4.377-.133 4.642-.729a29.755 29.755 0 0 0 1.227-4.145 6.99 6.99 0 0 1 .662-2.984c.6-.995 2.116-3.942 2.116-3.942a9.71 9.71 0 0 0 .953-1.934 17.218 17.218 0 0 0 .562-2.167 13.2 13.2 0 0 0 0-2.5c-.149-.808-.192-.867-.768-.873s-.607.873-.607.873S9.416.141 8.562.321s-.63.687-.63 1.416.066 3.14 0 3.272-.137.89-.269 1.155a6.847 6.847 0 0 0-.143-2.312c-.285-1.787-.568-2.4-1.1-2.5s-.877.167-.877.83.531 2.122.531 2.586a6.385 6.385 0 0 1-.24 1.777s-.461-1.634-.594-1.9-.368-1.64-1.156-1.271-.332.928-.2 1.459a14.775 14.775 0 0 1 .464 2.387 19.975 19.975 0 0 0-1.194 3.581 46.58 46.58 0 0 1-1.061 5.438A19.1 19.1 0 0 0 .5 19.295a1.4 1.4 0 0 0 .3.763z" transform="translate(25.79 14.783)" style="stroke-linejoin:round;stroke-width:.4px;stroke:#fff;fill:#0097ff;stroke-linecap:round;stroke-miterlimit:10"/>
                <path data-name="Path 239409" d="M128.847 17.807a11.9 11.9 0 0 1 0 2.237c-.124 1.028-.073.817-.213 1.574" transform="translate(-93.472 -1.369)" style="fill:#1778f2;stroke-linejoin:round;stroke-width:.4px;stroke:#fff;stroke-linecap:round;stroke-miterlimit:10"/>
            </g>
        </g>
    </g>
</svg>
