<svg xmlns="http://www.w3.org/2000/svg" viewBox="0 0 53.514 47.534"> <defs> <linearGradient id="rilngvx30a" x1=".5" x2=".5" y2="1" gradientUnits="objectBoundingBox"> <stop offset="0" stop-color="#fff"/> <stop offset="1" stop-color="#d9f88b"/> </linearGradient> </defs> <g> <g> <g> <g> <path fill="url(#rilngvx30a)" d="M248.874 191.652a51.317 51.317 0 0 1-13.3-13.3 8.375 8.375 0 0 1-2.383-5.779 8.147 8.147 0 0 1 2.383-5.779 70.058 70.058 0 0 1 13.3-13.3 8.372 8.372 0 0 1 5.779-2.384 8.144 8.144 0 0 1 5.779 2.384 80.005 80.005 0 0 1 13.3 13.3 8.372 8.372 0 0 1 2.384 5.779 8.149 8.149 0 0 1-2.384 5.779 79.486 79.486 0 0 1-13.3 13.3 8.421 8.421 0 0 1-3.516 2.067 7.956 7.956 0 0 1-2.264.316 8.446 8.446 0 0 1-2.813-.551 9.03 9.03 0 0 1-2.965-1.832z" transform="translate(-1371.464 -269) translate(629 82) translate(519.862 35.889)"/> <g> <path fill="#fff" stroke="#000" d="M235.561 155.534a2.174 2.174 0 0 1 2.126-1.969 20.364 20.364 0 0 0 6.964-1.209 18.011 18.011 0 0 0 3.8-2.272l2.182-1.651a2.4 2.4 0 0 1 3.047.093 23.433 23.433 0 0 0 5.539 3.74 3.507 3.507 0 0 0 .383.159 20.349 20.349 0 0 0 6.781 1.14 2.172 2.172 0 0 1 2.124 1.956c.443 3.949.973 12.782-2.1 19.031-3.359 6.832-11.026 10.576-13.593 11.672a2.127 2.127 0 0 1-1.709-.006c-2.537-1.1-10.075-4.842-13.4-11.665-3.046-6.244-2.564-15.062-2.144-19.019z" transform="translate(-1371.464 -269) translate(629 82) translate(743 195.559) translate(-235.251 -147.931)"/> <path fill="#0097ff" stroke="#fff" d="M245.1 166.652v-1.605a1.459 1.459 0 0 0-1.459-1.459h-1.605a2.384 2.384 0 1 1 0-4.769h1.605a1.46 1.46 0 0 0 1.459-1.459v-1.6a2.384 2.384 0 0 1 4.769 0v1.607a1.459 1.459 0 0 0 1.459 1.459h1.6a2.384 2.384 0 0 1 0 4.769h-1.605a1.457 1.457 0 0 0-1.459 1.459v1.6a2.384 2.384 0 0 1-4.769 0z" transform="translate(-1371.464 -269) translate(629 82) translate(743 195.559) translate(-230.591 -141.662)"/> </g> </g> </g> </g> </g></svg>