<svg xmlns="http://www.w3.org/2000/svg" viewBox="0 0 45.184 42.547"> <defs> <linearGradient id="linear-gradient" x1=".5" x2=".5" y2="1" gradientUnits="objectBoundingBox"> <stop offset="0" stop-color="#fff"/> <stop offset="1" stop-color="#d9f88b"/> </linearGradient> </defs> <g id="Group_88629" data-name="Group 88629" transform="translate(-1202.203 -527)"> <g id="Group_88628" data-name="Group 88628"> <path id="Path_183892" fill="url(#linear-gradient)" d="M248.736 191.3a50.869 50.869 0 0 1-13.183-13.183 8.3 8.3 0 0 1-2.362-5.729 8.076 8.076 0 0 1 2.362-5.729 69.444 69.444 0 0 1 13.183-13.182 8.3 8.3 0 0 1 5.729-2.363 8.072 8.072 0 0 1 5.729 2.363 79.3 79.3 0 0 1 13.183 13.182 8.3 8.3 0 0 1 2.363 5.729 8.077 8.077 0 0 1-2.363 5.729 78.786 78.786 0 0 1-13.184 13.183 8.347 8.347 0 0 1-3.485 2.049 7.886 7.886 0 0 1-2.244.313 8.371 8.371 0 0 1-2.788-.546 8.951 8.951 0 0 1-2.94-1.816z" data-name="Path 183892" transform="translate(971.648 375.889)"/> <g id="Group_88619" data-name="Group 88619" transform="translate(1144.039 208.765)"> <g id="Group_88618" data-name="Group 88618" transform="translate(58.682 320.831)"> <g id="Group_87950" data-name="Group 87950"> <path id="Path_166986" d="M651.745 759.916c.184 1.655.394 4.055.448 6.963a24.654 24.654 0 0 1-.448 7.377c-.815 2.787-2.112 3.773-4.8 7.53a67.441 67.441 0 0 0-5.1 8.349 2.948 2.948 0 0 0-.261 2.647 3.429 3.429 0 0 0 2.489 1.878c2.006.153 4.849.353 8.28.534.391.019 3.418.176 7.469.247a47.638 47.638 0 0 0 8.93-.78 4.449 4.449 0 0 0 3.059-1.451 3.668 3.668 0 0 0 .052-3.224c-2.029-5.827-8.039-9.129-10.01-15.635a24.165 24.165 0 0 1-.757-6.882 37.727 37.727 0 0 1 .709-7.987z" fill="#fff" stroke=" #2d2d2d" stroke-linecap="round" stroke-miterlimit="10" data-name="Path 166986" transform="translate(-641.381 -756.068)"/> <path id="Path_166987" d="M646.365 758.383a2.464 2.464 0 0 0 .057 2.489c.441.695 1.313 1.157 6.7 1.15 5.357 0 6.216-.457 6.633-1.15a2.433 2.433 0 0 0-.012-2.432c-.645-1.016-1.971-.907-6.859-.919-4.618-.003-5.904-.108-6.519.862z" fill="#fff" stroke=" #2d2d2d" stroke-linecap="round" stroke-miterlimit="10" data-name="Path 166987" transform="translate(-637.936 -757.516)"/> <path id="Line_569" d="M0 0L4.573 0" fill="none" stroke=" #2d2d2d" stroke-linecap="round" stroke-miterlimit="10" data-name="Line 569" transform="translate(13.397 11.029)"/> <path id="Line_571" d="M0 0L4.573 0" fill="none" stroke=" #2d2d2d" stroke-linecap="round" data-name="Line 571" transform="translate(13.397 15.098)"/> <path id="Line_572" d="M0 0L4.573 0" fill="none" stroke=" #2d2d2d" stroke-linecap="round" data-name="Line 572" transform="translate(13.397 19.197)"/> </g> <path id="Path_180830" fill="#4285f4" d="M158.992-9001.09c1.211-.994 1.348 0 2.658 0s1.3-1 2.583 0c2.55 1.994 7.389 5.984 4.958 7.979s-12.135 2-14.684 0 2.054-5.989 4.485-7.979z" data-name="Path 180830" transform="translate(-146.04 9027.007)"/> </g> </g> </g> </g></svg>