<svg xmlns="http://www.w3.org/2000/svg" viewBox="0 0 48.887 46.233"> <defs> <linearGradient id="linear-gradient" x1=".5" x2=".5" y2="1" gradientUnits="objectBoundingBox"> <stop offset="0" stop-color="#fff"/> <stop offset="1" stop-color="#d9f88b"/> </linearGradient> </defs> <g id="Group_88645" transform="translate(-644.501 -272)"> <g id="Group_88644"> <g id="Group_77544" transform="translate(369.877 151.425)"> <path id="Path_83290" fill="url(#linear-gradient)" d="M248.736 191.3a50.869 50.869 0 0 1-13.183-13.183 8.3 8.3 0 0 1-2.362-5.729 8.076 8.076 0 0 1 2.362-5.729 69.444 69.444 0 0 1 13.183-13.182 8.3 8.3 0 0 1 5.729-2.363 8.072 8.072 0 0 1 5.729 2.363 79.3 79.3 0 0 1 13.183 13.182 8.3 8.3 0 0 1 2.363 5.729 8.077 8.077 0 0 1-2.363 5.729 78.786 78.786 0 0 1-13.184 13.183 8.347 8.347 0 0 1-3.485 2.049 7.886 7.886 0 0 1-2.244.313 8.371 8.371 0 0 1-2.788-.546 8.951 8.951 0 0 1-2.94-1.816z" transform="translate(47.772 -30.536)"/> <g id="Group_36849" transform="translate(275.123 126.17)"> <path id="Path_71614" fill="#fff" stroke="#000" stroke-linejoin="round" d="M250.533 1218.029c.226-2.6.155-8.858.155-8.858s-.066-2.472-.5-6.419a5.209 5.209 0 0 0-1.387-3.28 4.775 4.775 0 0 0-3.444-1.2c-2.4-.12-4.92-.186-7.544-.183-2.478 0-4.859.07-7.136.183a4.889 4.889 0 0 0-3.439 1.207 4.77 4.77 0 0 0-1.592 3.278 72.941 72.941 0 0 0-.394 8.3 71.753 71.753 0 0 0 .394 9.405 4.889 4.889 0 0 0 1.588 3.285 4.766 4.766 0 0 0 3.443 1.211 46.014 46.014 0 0 0 8.266.459 41.554 41.554 0 0 0 6.414-.459 27.29 27.29 0 0 0 2.724-.714" transform="translate(-225.243 -1185.296)"/> <path id="Rectangle_2563" d="M231 1188.387a85.21 85.21 0 0 1 12.221 0 2.637 2.637 0 0 1 1.824.756 2.571 2.571 0 0 1 .756 1.824 13.392 13.392 0 0 1 0 5.073 2.582 2.582 0 0 1-.756 1.825 2.836 2.836 0 0 1-1.824.755c-1.967.135-3.962.17-6.186.164-2.088 0-4.175-.037-6.035-.164a2.635 2.635 0 0 1-1.824-.755 2.572 2.572 0 0 1-.756-1.825 13.929 13.929 0 0 1 0-5.073 2.641 2.641 0 0 1 .352-1.3 2.6 2.6 0 0 1 .4-.522 2.883 2.883 0 0 1 1.828-.758z" fill=" #fff" stroke="#000" stroke-miterlimit="10" transform="translate(-224.395 -1188.168)"/> <path id="Rectangle_2566" d="M241.608 1213.463a58.568 58.568 0 0 1 6.791-.3 61.528 61.528 0 0 1 6.514.3 3.642 3.642 0 0 1 2.519 1.044 3.552 3.552 0 0 1 1.043 2.519 3.562 3.562 0 0 1-3.563 3.563c-2.007.174-4.184.224-6.514.228-2.434.005-4.707-.046-6.791-.228a3.637 3.637 0 0 1-2.519-1.042 3.554 3.554 0 0 1-1.044-2.521 3.563 3.563 0 0 1 3.564-3.563z" fill=" #fff" stroke="#000" stroke-miterlimit="10" transform="translate(-221.536 -1180.923)"/> <path id="Rectangle_2567" fill="none" stroke="#000" stroke-miterlimit="10" stroke-width="0.854px" d="M0 0H0.195V7.126H0z" transform="translate(26.684 32.54)"/> <path id="Union_2" fill="#0097ff" stroke="#fff" stroke-width="0.654px" d="M234.988 1213.84v-1.678a.725.725 0 0 0-.725-.726h-1.678a1.87 1.87 0 1 1 0-3.741h1.679a.725.725 0 0 0 .725-.725v-1.678a1.871 1.871 0 0 1 3.742 0v1.679a.725.725 0 0 0 .725.725h1.678a1.871 1.871 0 0 1 0 3.742h-1.679a.724.724 0 0 0-.725.725v1.677a1.871 1.871 0 0 1-3.742 0z" transform="translate(-223.662 -1183.749)"/> </g> </g> </g> </g></svg>